# xmcd
#
# Track frame offsets:
#	150
#	34065
#	55232
#	101857
#	126047
#	158625
#	180957
#
# Disc length: 3327 seconds
#
# Revision: 2
# Processed by: cddbd v1.4PL0 Copyright (c) Steve Scherf et al.
# Submitted via: dBpowerAMP V4.0
#
DISCID=510cfd07
DTITLE=Ernestine Anderson - I Love Being Here With You (Disk 2)
DYEAR=1900
DGENRE=Jazz
TTITLE0=Blues In The Closet (instr)
TTITLE1=I Let A Song Go Out Of My Heart
TTITLE2=I Should Care
TTITLE3=There Is No Greater Love
TTITLE4=Skylark
TTITLE5=On My Own
TTITLE6=Never Make Your Move Too Soon
EXTD=
EXTT0=
EXTT1=
EXTT2=
EXTT3=
EXTT4=
EXTT5=
EXTT6=
PLAYORDER=
